<svg width="6" height="20" viewBox="0 0 6 20" fill="none" xmlns="http://www.w3.org/2000/svg">
<path d="M5.05273 17.1465C5.05273 17.7203 4.78934 18.2706 4.3205 18.6763C3.85166 19.0821 3.21578 19.31 2.55273 19.31C1.88969 19.31 1.25381 19.0821 0.784967 18.6763C0.316126 18.2706 0.0527344 17.7203 0.0527344 17.1465C0.0527344 16.5728 0.316126 16.0225 0.784967 15.6167C1.25381 15.211 1.88969 14.9831 2.55273 14.9831C3.21578 14.9831 3.85166 15.211 4.3205 15.6167C4.78934 16.0225 5.05273 16.5728 5.05273 17.1465ZM5.05273 9.935C5.05273 10.5088 4.78934 11.0591 4.3205 11.4648C3.85166 11.8705 3.21578 12.0985 2.55273 12.0985C1.88969 12.0985 1.25381 11.8705 0.784967 11.4648C0.316126 11.0591 0.0527344 10.5088 0.0527344 9.935C0.0527344 9.36121 0.316126 8.81093 0.784967 8.4052C1.25381 7.99947 1.88969 7.77154 2.55273 7.77154C3.21578 7.77154 3.85166 7.99947 4.3205 8.4052C4.78934 8.81093 5.05273 9.36121 5.05273 9.935ZM5.05273 2.72346C5.05273 3.29725 4.78934 3.84753 4.3205 4.25326C3.85166 4.65899 3.21578 4.88692 2.55273 4.88692C1.88969 4.88692 1.25381 4.65899 0.784967 4.25326C0.316126 3.84753 0.0527344 3.29725 0.0527344 2.72346C0.0527344 2.14968 0.316126 1.59939 0.784967 1.19366C1.25381 0.787935 1.88969 0.559999 2.55273 0.559999C3.21578 0.559999 3.85166 0.787935 4.3205 1.19366C4.78934 1.59939 5.05273 2.14968 5.05273 2.72346Z" fill="#808080"/>
</svg>
