<svg width="24" height="23" viewBox="0 0 24 23" fill="none" xmlns="http://www.w3.org/2000/svg">
<path d="M19.9999 8.18994V3.49994H15.3099L11.9999 0.189941L8.68994 3.49994H3.99994V8.18994L0.689941 11.4999L3.99994 14.8099V19.4999H8.68994L11.9999 22.8099L15.3099 19.4999H19.9999V14.8099L23.3099 11.4999L19.9999 8.18994ZM11.9999 17.4999C11.1099 17.4999 10.2599 17.2999 9.49994 16.9499C11.5599 15.9999 12.9999 13.9199 12.9999 11.4999C12.9999 9.07994 11.5599 6.99994 9.49994 6.04994C10.2599 5.69994 11.1099 5.49994 11.9999 5.49994C15.3099 5.49994 17.9999 8.18994 17.9999 11.4999C17.9999 14.8099 15.3099 17.4999 11.9999 17.4999Z" fill="white"/>
</svg>
