<svg width="20" height="21" viewBox="0 0 20 21" fill="none" xmlns="http://www.w3.org/2000/svg">
<path d="M11.8199 20.5H8.17988C7.95182 20.5 7.73059 20.4221 7.55289 20.2792C7.37519 20.1362 7.25169 19.9368 7.20288 19.714L6.79588 17.83C6.25294 17.5921 5.73812 17.2946 5.26088 16.943L3.42388 17.528C3.20645 17.5973 2.97183 17.5902 2.759 17.5078C2.54617 17.4254 2.36794 17.2727 2.25388 17.075L0.429884 13.924C0.31703 13.7261 0.274667 13.4958 0.309727 13.2708C0.344787 13.0457 0.455193 12.8392 0.622884 12.685L2.04788 11.385C1.98308 10.7961 1.98308 10.2019 2.04788 9.613L0.622884 8.316C0.454956 8.16177 0.344399 7.95507 0.309333 7.72978C0.274268 7.50449 0.316774 7.27397 0.429884 7.076L2.24988 3.923C2.36394 3.72532 2.54218 3.57259 2.755 3.49019C2.96783 3.40778 3.20245 3.40066 3.41988 3.47L5.25688 4.055C5.50088 3.875 5.75488 3.707 6.01688 3.555C6.26988 3.413 6.52988 3.284 6.79588 3.169L7.20388 1.287C7.25246 1.0642 7.37572 0.864688 7.55323 0.721549C7.73074 0.57841 7.95185 0.50024 8.17988 0.5H11.8199C12.0479 0.50024 12.269 0.57841 12.4465 0.721549C12.6241 0.864688 12.7473 1.0642 12.7959 1.287L13.2079 3.17C13.4879 3.294 13.7619 3.433 14.0269 3.588C14.2739 3.731 14.5129 3.888 14.7429 4.057L16.5809 3.472C16.7982 3.40292 17.0326 3.41017 17.2452 3.49256C17.4578 3.57495 17.6359 3.72753 17.7499 3.925L19.5699 7.078C19.8019 7.485 19.7219 8 19.3769 8.317L17.9519 9.617C18.0167 10.2059 18.0167 10.8001 17.9519 11.389L19.3769 12.689C19.7219 13.007 19.8019 13.521 19.5699 13.928L17.7499 17.081C17.6358 17.2787 17.4576 17.4314 17.2448 17.5138C17.0319 17.5962 16.7973 17.6033 16.5799 17.534L14.7429 16.949C14.266 17.3003 13.7515 17.5975 13.2089 17.835L12.7959 19.714C12.7471 19.9366 12.6238 20.1359 12.4463 20.2788C12.2688 20.4218 12.0478 20.4998 11.8199 20.5ZM9.99588 6.5C8.93502 6.5 7.9176 6.92143 7.16746 7.67157C6.41731 8.42172 5.99588 9.43913 5.99588 10.5C5.99588 11.5609 6.41731 12.5783 7.16746 13.3284C7.9176 14.0786 8.93502 14.5 9.99588 14.5C11.0568 14.5 12.0742 14.0786 12.8243 13.3284C13.5745 12.5783 13.9959 11.5609 13.9959 10.5C13.9959 9.43913 13.5745 8.42172 12.8243 7.67157C12.0742 6.92143 11.0568 6.5 9.99588 6.5Z" fill="white"/>
</svg>
