<svg width="22" height="22" viewBox="0 0 22 22" fill="none" xmlns="http://www.w3.org/2000/svg">
<path d="M20.4813 1.45537L5.49954 0.716742C4.96975 0.690623 4.45129 0.876031 4.0582 1.23218C3.66511 1.58833 3.4296 2.08604 3.40348 2.61583L3.25576 5.61219L1.25819 5.51371L1.1597 7.51128L3.15728 7.60977L3.05879 9.60734L1.06122 9.50886L0.962736 11.5064L2.96031 11.6049L2.86183 13.6025L0.864253 13.504L0.76577 15.5016L2.76334 15.6001L2.61562 18.5964C2.5895 19.1262 2.77491 19.6447 3.13106 20.0378C3.4872 20.4309 3.98492 20.6664 4.51471 20.6925L19.4965 21.4311C19.7614 21.4442 20.0206 21.3515 20.2172 21.1734C20.4137 20.9953 20.5315 20.7465 20.5445 20.4816L21.4309 2.5034C21.4439 2.2385 21.3512 1.97927 21.1732 1.78272C20.9951 1.58618 20.7462 1.46843 20.4813 1.45537ZM12.3434 4.0568C13.9894 4.13795 15.2732 5.55388 15.192 7.20088C15.15 7.99462 14.7959 8.73958 14.2069 9.27336C13.618 9.80715 12.8419 10.0865 12.0479 10.0505C10.4029 9.96941 9.11814 8.55143 9.19929 6.90543C9.28049 5.25843 10.6984 3.97569 12.3434 4.0568ZM17.6959 17.3375L5.71046 16.7466L5.74739 15.9975C5.85666 13.7812 8.6707 11.6361 11.9617 11.7984C15.2527 11.9606 17.8421 14.3721 17.7328 16.5884L17.6959 17.3375Z" fill="white"/>
</svg>
