<svg width="20" height="20" viewBox="0 0 20 20" fill="none" xmlns="http://www.w3.org/2000/svg">
<path d="M7.75304 13L12.753 10L7.75304 7V13ZM17.203 11L19.313 12.63C19.533 12.78 19.563 13 19.413 13.28L17.393 16.75C17.253 16.97 17.063 17.03 16.783 16.94L14.303 15.95C13.643 16.42 13.083 16.75 12.613 16.94L12.253 19.56C12.173 19.84 12.023 20 11.753 20H7.75304C7.48304 20 7.33304 19.84 7.25304 19.56L6.89304 16.94C6.30304 16.69 5.75304 16.36 5.20304 15.95L2.72304 16.94C2.44304 17.03 2.25304 16.97 2.11304 16.75L0.0930388 13.28C-0.0569612 13 -0.026961 12.78 0.193039 12.63L2.30304 11C2.25304 10.77 2.25304 10.44 2.25304 10C2.25304 9.56 2.25304 9.23 2.30304 9L0.193039 7.38C-0.026961 7.22 -0.0569612 7 0.0930388 6.72L2.11304 3.25C2.25304 3.03 2.44304 2.97 2.72304 3.06L5.20304 4.05C5.86304 3.58 6.42304 3.25 6.89304 3.06L7.25304 0.44C7.33304 0.16 7.48304 0 7.75304 0H11.753C12.023 0 12.173 0.16 12.253 0.44L12.613 3.06C13.203 3.31 13.753 3.64 14.303 4.05L16.783 3.06C17.063 2.97 17.253 3.03 17.393 3.25L19.413 6.72C19.563 7 19.533 7.22 19.313 7.38L17.203 9C17.253 9.23 17.253 9.56 17.253 10C17.253 10.44 17.253 10.77 17.203 11Z" fill="white"/>
</svg>
