<svg width="18" height="23" viewBox="0 0 18 23" fill="none" xmlns="http://www.w3.org/2000/svg">
<path d="M9 0.5L0 4.5V10.5C0 16.05 3.84 21.24 9 22.5C14.16 21.24 18 16.05 18 10.5V4.5L9 0.5ZM9 4.5C9.79565 4.5 10.5587 4.81607 11.1213 5.37868C11.6839 5.94129 12 6.70435 12 7.5C12 8.29565 11.6839 9.05871 11.1213 9.62132C10.5587 10.1839 9.79565 10.5 9 10.5C8.20435 10.5 7.44129 10.1839 6.87868 9.62132C6.31607 9.05871 6 8.29565 6 7.5C6 6.70435 6.31607 5.94129 6.87868 5.37868C7.44129 4.81607 8.20435 4.5 9 4.5ZM14.13 16.5C12.9184 18.3547 11.1078 19.7382 9 20.42C6.89217 19.7382 5.08162 18.3547 3.87 16.5C3.53 16 3.24 15.5 3 14.97C3 13.32 5.71 11.97 9 11.97C12.29 11.97 15 13.29 15 14.97C14.76 15.5 14.47 16 14.13 16.5Z" fill="white"/>
</svg>
