<svg width="22" height="15" viewBox="0 0 22 15" fill="none" xmlns="http://www.w3.org/2000/svg">
<path d="M20 0.5H2C1.46957 0.5 0.960859 0.710714 0.585786 1.08579C0.210714 1.46086 0 1.96957 0 2.5V12.5C0 13.0304 0.210714 13.5391 0.585786 13.9142C0.960859 14.2893 1.46957 14.5 2 14.5H20C20.5304 14.5 21.0391 14.2893 21.4142 13.9142C21.7893 13.5391 22 13.0304 22 12.5V2.5C22 1.96957 21.7893 1.46086 21.4142 1.08579C21.0391 0.710714 20.5304 0.5 20 0.5ZM12 2.5H14V4.5H12V2.5ZM12 6.5H14V8.5H12V6.5ZM8 2.5H10V4.5H8V2.5ZM8 6.5H10V8.5H8V6.5ZM4 2.5H6V4.5H4V2.5ZM4 6.5H6V8.5H4V6.5ZM16 12.5H6V10.5H16V12.5ZM18 8.5H16V6.5H18V8.5ZM18 4.5H16V2.5H18V4.5Z" fill="white"/>
</svg>
