<svg width="19" height="22" viewBox="0 0 19 22" fill="none" xmlns="http://www.w3.org/2000/svg">
<path fill-rule="evenodd" clip-rule="evenodd" d="M0 2.54602C0 1.58002 0.784 0.796021 1.75 0.796021H7.25C7.44891 0.796021 7.63968 0.875038 7.78033 1.01569C7.92098 1.15634 8 1.34711 8 1.54602C8 1.74493 7.92098 1.9357 7.78033 2.07635C7.63968 2.217 7.44891 2.29602 7.25 2.29602H1.75C1.6837 2.29602 1.62011 2.32236 1.57322 2.36924C1.52634 2.41613 1.5 2.47972 1.5 2.54602V20.046C1.5 20.184 1.612 20.296 1.75 20.296H7.25C7.44891 20.296 7.63968 20.375 7.78033 20.5157C7.92098 20.6563 8 20.8471 8 21.046C8 21.2449 7.92098 21.4357 7.78033 21.5764C7.63968 21.717 7.44891 21.796 7.25 21.796H1.75C1.28587 21.796 0.840752 21.6116 0.512563 21.2835C0.184375 20.9553 0 20.5101 0 20.046V2.54602ZM16.006 12.046L12.706 15.53C12.5746 15.6752 12.5052 15.8661 12.5126 16.0619C12.5201 16.2576 12.6038 16.4426 12.7459 16.5774C12.888 16.7122 13.0773 16.7861 13.2731 16.7832C13.469 16.7803 13.6559 16.7009 13.794 16.562L18.294 11.812C18.4261 11.6727 18.4997 11.488 18.4997 11.296C18.4997 11.104 18.4261 10.9194 18.294 10.78L13.794 6.03002C13.6559 5.8911 13.469 5.81172 13.2731 5.80883C13.0773 5.80595 12.888 5.87981 12.7459 6.0146C12.6038 6.1494 12.5201 6.33445 12.5126 6.53018C12.5052 6.72591 12.5746 6.91679 12.706 7.06202L16.006 10.546H7.75C7.55109 10.546 7.36032 10.625 7.21967 10.7657C7.07902 10.9063 7 11.0971 7 11.296C7 11.4949 7.07902 11.6857 7.21967 11.8264C7.36032 11.967 7.55109 12.046 7.75 12.046H16.006Z" fill="white"/>
</svg>
