<svg width="20" height="21" viewBox="0 0 20 21" fill="none" xmlns="http://www.w3.org/2000/svg">
<path d="M2 4.29602H0V18.296C0 19.396 0.9 20.296 2 20.296H16V18.296H2V4.29602ZM18 0.296021H6C4.9 0.296021 4 1.19602 4 2.29602V14.296C4 15.396 4.9 16.296 6 16.296H18C19.1 16.296 20 15.396 20 14.296V2.29602C20 1.19602 19.1 0.296021 18 0.296021ZM12 2.29602C13.66 2.29602 15 3.63602 15 5.29602C15 6.95602 13.66 8.29602 12 8.29602C10.34 8.29602 9 6.95602 9 5.29602C9 3.63602 10.34 2.29602 12 2.29602ZM18 14.296H6V12.796C6 10.806 10 9.79602 12 9.79602C14 9.79602 18 10.806 18 12.796V14.296Z" fill="white"/>
</svg>
