<svg width="18" height="16" viewBox="0 0 18 16" fill="none" xmlns="http://www.w3.org/2000/svg">
<path d="M3.25 6.97519e-09H14.75C15.5801 -5.43467e-05 16.3788 0.317554 16.9822 0.887671C17.5856 1.45779 17.948 2.23719 17.995 3.066L18 3.25V12.75C18.0001 13.5801 17.6824 14.3788 17.1123 14.9822C16.5422 15.5856 15.7628 15.948 14.934 15.995L14.75 16H3.25C2.41986 16.0001 1.62117 15.6824 1.01777 15.1123C0.414367 14.5422 0.0519987 13.7628 0.00500012 12.934L6.97518e-09 12.75V3.25C-5.43467e-05 2.41986 0.317554 1.62117 0.887672 1.01777C1.45779 0.414367 2.23719 0.0519987 3.066 0.00500012L3.25 6.97519e-09H14.75H3.25ZM14.75 1.5H3.25C2.81081 1.50002 2.38768 1.66517 2.06461 1.96268C1.74154 2.26019 1.54214 2.6683 1.506 3.106L1.5 3.25V12.75C1.50002 13.1892 1.66517 13.6123 1.96268 13.9354C2.26019 14.2585 2.6683 14.4579 3.106 14.494L3.25 14.5H14.75C15.1893 14.5 15.6126 14.3347 15.9357 14.037C16.2588 13.7392 16.4581 13.3309 16.494 12.893L16.5 12.75V3.25C16.5 2.81065 16.3347 2.38739 16.037 2.06429C15.7392 1.74119 15.3309 1.5419 14.893 1.506L14.75 1.5ZM7.053 5.585C7.10542 5.48038 7.19288 5.39747 7.30014 5.35069C7.4074 5.30392 7.52766 5.29624 7.64 5.329L7.724 5.362L12.106 7.552C12.1824 7.5901 12.2477 7.64712 12.2958 7.71762C12.3439 7.78813 12.3732 7.86977 12.3808 7.95478C12.3884 8.03979 12.3741 8.12533 12.3393 8.20326C12.3045 8.2812 12.2504 8.34892 12.182 8.4L12.106 8.447L7.724 10.638C7.65461 10.6728 7.57806 10.691 7.50043 10.6911C7.4228 10.6912 7.34621 10.6732 7.27674 10.6385C7.20726 10.6039 7.14681 10.5535 7.10016 10.4915C7.05352 10.4294 7.02196 10.3574 7.008 10.281L7 10.19V5.809C7.00001 5.73123 7.01815 5.65453 7.053 5.585Z" fill="white"/>
</svg>
