<svg width="24" height="24" viewBox="0 0 24 24" fill="none" xmlns="http://www.w3.org/2000/svg">
<path d="M2.12 13.526C2.862 18.306 7.022 21.996 12 21.996C17.5 21.996 22 17.496 22 11.998C22 6.5 17.5 2 12 2C10.4475 1.99984 8.91634 2.36123 7.52776 3.05552C6.13918 3.74981 4.93136 4.75792 4 6V2H2.003L2 9H9V7H5.8C7.2 5.2 9.502 4 12.002 4C16.4 4 20 7.6 20 11.998C20 16.396 16.4 19.998 12 19.998C8.123 19.998 4.87 17.203 4.152 13.526H2.12Z" fill="white"/>
<path d="M11.002 7V12.3L14.202 16.598L15.802 15.401L13.002 11.701V7" fill="white"/>
</svg>
