<svg width="20" height="17" viewBox="0 0 20 17" fill="none" xmlns="http://www.w3.org/2000/svg">
<path d="M1.36364 0.997681H18.6364C19.4 0.997681 20 1.62798 20 2.45223V13.6037C20 14.428 19.4 15.0583 18.6364 15.0583H1.36364C0.590909 15.0583 0 14.428 0 13.6037V2.45223C0 1.62798 0.590909 0.997681 1.36364 0.997681ZM7.91818 4.87647V11.1795L13.1091 7.9795L7.91818 4.87647ZM14.7727 16.9977H5.13636C4.86364 16.9977 4.68182 16.8037 4.68182 16.5128C4.68182 16.2219 4.86364 16.028 5.13636 16.028H14.8636C15.1364 16.028 15.3182 16.2219 15.3182 16.5128C15.3182 16.8037 15.0455 16.9977 14.7727 16.9977Z" fill="#FF0000"/>
</svg>
