<svg width="20" height="17" viewBox="0 0 20 17" fill="none" xmlns="http://www.w3.org/2000/svg">
<path d="M19.4937 3.07203C19.4091 2.73599 19.2475 2.42537 19.0223 2.1658C18.7971 1.90623 18.5149 1.70515 18.1988 1.57915C15.1389 0.376418 10.266 0.386464 10 0.387925C9.73411 0.385733 4.86116 0.376418 1.80134 1.57915C1.48523 1.70513 1.20294 1.90619 0.977761 2.16575C0.75258 2.4253 0.590965 2.73591 0.50625 3.07194C0.275268 3.97894 0 5.6374 0 8.38772C0 11.138 0.275268 12.7964 0.50625 13.7034C0.590943 14.0394 0.75254 14.3501 0.977705 14.6096C1.20287 14.8692 1.48515 15.0703 1.80125 15.1963C4.73036 16.3477 9.32107 16.3877 9.94116 16.3877H10.0588C10.6794 16.3877 15.2697 16.3475 18.1987 15.1963C18.5148 15.0703 18.7971 14.8692 19.0222 14.6097C19.2474 14.3501 19.409 14.0395 19.4937 13.7035C19.7247 12.7965 20 11.138 20 8.38772C20 5.6374 19.7247 3.97903 19.4937 3.07203ZM13.0553 8.69167L8.76955 11.6142C8.71577 11.6509 8.65326 11.672 8.58869 11.6752C8.52412 11.6784 8.45992 11.6636 8.40292 11.6324C8.34592 11.6012 8.29827 11.5547 8.26505 11.498C8.23183 11.4413 8.21429 11.3764 8.21429 11.3103V5.46515C8.21429 5.39903 8.23183 5.33415 8.26505 5.27742C8.29827 5.2207 8.34592 5.17426 8.40292 5.14306C8.45992 5.11186 8.52412 5.09707 8.58869 5.10027C8.65326 5.10346 8.71577 5.12452 8.76955 5.16121L13.0553 8.08377C13.1042 8.11714 13.1443 8.16233 13.172 8.21535C13.1998 8.26838 13.2143 8.32758 13.2143 8.38772C13.2143 8.44786 13.1998 8.50706 13.172 8.56008C13.1443 8.61311 13.1042 8.6583 13.0553 8.69167Z" fill="#FF0000"/>
</svg>
