<svg width="21" height="17" viewBox="0 0 21 17" fill="none" xmlns="http://www.w3.org/2000/svg">
<path d="M19.5567 3.6532C19.472 3.31717 19.3104 3.00655 19.0853 2.74698C18.8601 2.48741 18.5778 2.28632 18.2617 2.16032C15.2019 0.957594 10.329 0.967641 10.063 0.969102C9.7971 0.96691 4.92415 0.957594 1.86433 2.16032C1.54822 2.2863 1.26593 2.48737 1.04075 2.74692C0.815569 3.00648 0.653953 3.31709 0.569238 3.65311C0.338256 4.56011 0.0629883 6.21858 0.0629883 8.9689C0.0629883 11.7192 0.338256 13.3776 0.569238 14.2846C0.653932 14.6206 0.815528 14.9312 1.04069 15.1908C1.26586 15.4504 1.54814 15.6515 1.86424 15.7775C4.79335 16.9289 9.38406 16.9689 10.0041 16.9689H10.1218C10.7424 16.9689 15.3327 16.9287 18.2616 15.7775C18.5778 15.6515 18.86 15.4504 19.0852 15.1909C19.3104 14.9313 19.472 14.6207 19.5567 14.2847C19.7877 13.3777 20.063 11.7192 20.063 8.9689C20.063 6.21858 19.7877 4.5602 19.5567 3.6532ZM13.1183 9.27284L8.83254 12.1954C8.77876 12.2321 8.71625 12.2532 8.65168 12.2564C8.58711 12.2595 8.5229 12.2448 8.46591 12.2136C8.40891 12.1824 8.36126 12.1359 8.32804 12.0792C8.29482 12.0225 8.27728 11.9576 8.27727 11.8915V6.04633C8.27728 5.98021 8.29482 5.91532 8.32804 5.8586C8.36126 5.80187 8.40891 5.75543 8.46591 5.72424C8.5229 5.69304 8.58711 5.67825 8.65168 5.68144C8.71625 5.68464 8.77876 5.7057 8.83254 5.74238L13.1183 8.66495C13.1672 8.69831 13.2073 8.74351 13.235 8.79653C13.2628 8.84955 13.2773 8.90876 13.2773 8.9689C13.2773 9.02903 13.2628 9.08824 13.235 9.14126C13.2073 9.19428 13.1672 9.23948 13.1183 9.27284Z" fill="#FF0000"/>
</svg>
