<svg width="20" height="17" viewBox="0 0 20 17" fill="none" xmlns="http://www.w3.org/2000/svg">
<path d="M19.4937 3.48963C19.4091 3.1536 19.2475 2.84298 19.0223 2.58341C18.7971 2.32383 18.5149 2.12275 18.1988 1.99675C15.1389 0.79402 10.266 0.804067 10 0.805528C9.73411 0.803336 4.86116 0.79402 1.80134 1.99675C1.48523 2.12273 1.20294 2.32379 0.977761 2.58335C0.75258 2.84291 0.590965 3.15351 0.50625 3.48954C0.275268 4.39654 0 6.055 0 8.80532C0 11.5556 0.275268 13.214 0.50625 14.121C0.590943 14.457 0.75254 14.7677 0.977705 15.0272C1.20287 15.2868 1.48515 15.4879 1.80125 15.6139C4.73036 16.7653 9.32107 16.8053 9.94116 16.8053H10.0588C10.6794 16.8053 15.2697 16.7651 18.1987 15.6139C18.5148 15.4879 18.7971 15.2868 19.0222 15.0273C19.2474 14.7677 19.409 14.4571 19.4937 14.1211C19.7247 13.2141 20 11.5556 20 8.80532C20 6.055 19.7247 4.39663 19.4937 3.48963ZM13.0553 9.10927L8.76955 12.0318C8.71577 12.0685 8.65326 12.0896 8.58869 12.0928C8.52412 12.096 8.45992 12.0812 8.40292 12.05C8.34592 12.0188 8.29827 11.9723 8.26505 11.9156C8.23183 11.8589 8.21429 11.794 8.21429 11.7279V5.88276C8.21429 5.81663 8.23183 5.75175 8.26505 5.69502C8.29827 5.6383 8.34592 5.59186 8.40292 5.56066C8.45992 5.52946 8.52412 5.51467 8.58869 5.51787C8.65326 5.52106 8.71577 5.54213 8.76955 5.57881L13.0553 8.50138C13.1042 8.53474 13.1443 8.57994 13.172 8.63296C13.1998 8.68598 13.2143 8.74519 13.2143 8.80532C13.2143 8.86546 13.1998 8.92466 13.172 8.97769C13.1443 9.03071 13.1042 9.07591 13.0553 9.10927Z" fill="#FF0000"/>
</svg>
