<svg width="21" height="21" viewBox="0 0 21 21" fill="none" xmlns="http://www.w3.org/2000/svg">
<path d="M10.5 0.565308C4.98 0.565308 0.5 5.04531 0.5 10.5653C0.5 16.0853 4.98 20.5653 10.5 20.5653C16.02 20.5653 20.5 16.0853 20.5 10.5653C20.5 5.04531 16.02 0.565308 10.5 0.565308ZM10.5 16.4853C7.23 16.4853 4.58 13.8353 4.58 10.5653C4.58 7.29531 7.23 4.64531 10.5 4.64531C13.77 4.64531 16.42 7.29531 16.42 10.5653C16.42 13.8353 13.77 16.4853 10.5 16.4853ZM10.5 5.37531C7.64 5.37531 5.31 7.70531 5.31 10.5653C5.31 13.4253 7.64 15.7553 10.5 15.7553C13.36 15.7553 15.69 13.4253 15.69 10.5653C15.69 7.70531 13.36 5.37531 10.5 5.37531ZM8.57 13.5153V7.61531L13.68 10.5653L8.57 13.5153Z" fill="#FF0000"/>
</svg>
