<svg width="30" height="23" viewBox="0 0 30 23" fill="none" xmlns="http://www.w3.org/2000/svg">
<path d="M3.66683 22.5H5.0835V7.33334H3.66683C2.91538 7.33334 2.19471 7.57918 1.66336 8.01676C1.13201 8.45435 0.833496 9.04784 0.833496 9.66668V20.1667C0.833496 20.7855 1.13201 21.379 1.66336 21.8166C2.19471 22.2542 2.91538 22.5 3.66683 22.5ZM26.3335 7.33334H16.4168L18.0063 3.40401C18.1482 3.05333 18.1868 2.67991 18.1191 2.31452C18.0513 1.94914 17.8791 1.60223 17.6167 1.30237C17.3543 1.00252 17.0091 0.758293 16.6096 0.589819C16.2101 0.421344 15.7677 0.333439 15.3189 0.333344H15.0002L7.91683 6.67768V22.5H23.5002L29.0422 12.4713L29.1668 12V9.66668C29.1668 9.04784 28.8683 8.45435 28.337 8.01676C27.8056 7.57918 27.0849 7.33334 26.3335 7.33334Z" fill="#808080"/>
</svg>
