<svg width="24" height="20" viewBox="0 0 24 20" fill="none" xmlns="http://www.w3.org/2000/svg">
<path d="M21.601 0H20.401V13.6842H21.601C22.2375 13.6842 22.8479 13.4624 23.298 13.0676C23.7481 12.6728 24.001 12.1373 24.001 11.5789V2.10526C24.001 1.54691 23.7481 1.01143 23.298 0.616617C22.8479 0.221804 22.2375 0 21.601 0ZM2.40098 13.6842H10.801L9.45458 17.2295C9.33444 17.5459 9.30171 17.8828 9.35909 18.2125C9.41647 18.5421 9.56231 18.8551 9.7846 19.1257C10.0069 19.3962 10.2993 19.6166 10.6377 19.7686C10.9761 19.9206 11.3508 19.9999 11.731 20H12.001L18.001 14.2758V0H4.80098L0.0765765 9.10421L0.000976562 9.41263V11.5789C0.000976563 12.1373 0.253833 12.6728 0.70392 13.0676C1.15401 13.4624 1.76446 13.6842 2.40098 13.6842Z" fill="#808080"/>
</svg>
