<svg width="68" height="69" viewBox="0 0 68 69" fill="none" xmlns="http://www.w3.org/2000/svg">
<path d="M34 0.405762C15.2526 0.405762 0 15.732 0 34.57C0 53.408 15.2526 68.7343 34 68.7343C52.7474 68.7343 68 53.408 68 34.57C68 15.732 52.7474 0.405762 34 0.405762ZM26.1538 21.4299C26.1599 19.3408 26.9885 17.339 28.4586 15.8618C29.9287 14.3845 31.9209 13.5519 34 13.5459C36.0791 13.5519 38.0713 14.3845 39.5414 15.8618C41.0115 17.339 41.8401 19.3408 41.8462 21.4299V31.942C41.8401 34.0311 41.0115 36.0329 39.5414 37.5102C38.0713 38.9874 36.0791 39.82 34 39.8261C31.9209 39.82 29.9287 38.9874 28.4586 37.5102C26.9885 36.0329 26.1599 34.0311 26.1538 31.942V21.4299ZM49.6923 33.2921C49.6923 37.1291 47.904 40.7836 44.6593 43.5841C42.3665 45.5617 39.5894 46.8875 36.6154 47.4243V50.3381H39.2308C39.9244 50.3381 40.5896 50.615 41.0801 51.1079C41.5706 51.6007 41.8462 52.2692 41.8462 52.9662C41.8462 53.6632 41.5706 54.3316 41.0801 54.8245C40.5896 55.3173 39.9244 55.5942 39.2308 55.5942H28.7692C28.0756 55.5942 27.4104 55.3173 26.9199 54.8245C26.4294 54.3316 26.1538 53.6632 26.1538 52.9662C26.1538 52.2692 26.4294 51.6007 26.9199 51.1079C27.4104 50.615 28.0756 50.3381 28.7692 50.3381H31.3846V47.4243C28.4106 46.8875 25.6335 45.5617 23.3407 43.5841C20.096 40.7836 18.3077 37.1291 18.3077 33.2921V29.3633C18.3077 28.6663 18.5832 27.9978 19.0737 27.505C19.5642 27.0121 20.2294 26.7352 20.9231 26.7352C21.6167 26.7352 22.282 27.0121 22.7724 27.505C23.2629 27.9978 23.5385 28.6663 23.5385 29.3633V33.2921C23.5385 37.5068 28.1154 42.4048 34 42.4048C38.8385 42.4048 44.4615 38.425 44.4615 33.2921V29.3633C44.4615 28.6663 44.7371 27.9978 45.2276 27.505C45.718 27.0121 46.3833 26.7352 47.0769 26.7352C47.7706 26.7352 48.4358 27.0121 48.9263 27.505C49.4168 27.9978 49.6923 28.6663 49.6923 29.3633V33.2921Z" fill="#CE0000"/>
</svg>
