<svg width="16" height="24" viewBox="0 0 16 24" fill="none" xmlns="http://www.w3.org/2000/svg">
<path d="M3.5 4.5C3.5 3.30653 3.97411 2.16193 4.81802 1.31802C5.66193 0.474106 6.80653 0 8 0C9.19347 0 10.3381 0.474106 11.182 1.31802C12.0259 2.16193 12.5 3.30653 12.5 4.5V12C12.5 13.1935 12.0259 14.3381 11.182 15.182C10.3381 16.0259 9.19347 16.5 8 16.5C6.80653 16.5 5.66193 16.0259 4.81802 15.182C3.97411 14.3381 3.5 13.1935 3.5 12V4.5Z" fill="#FAFAFA"/>
<path d="M1.25 9.75C1.44891 9.75 1.63968 9.82902 1.78033 9.96967C1.92098 10.1103 2 10.3011 2 10.5V12C2 13.5913 2.63214 15.1174 3.75736 16.2426C4.88258 17.3679 6.4087 18 8 18C9.5913 18 11.1174 17.3679 12.2426 16.2426C13.3679 15.1174 14 13.5913 14 12V10.5C14 10.3011 14.079 10.1103 14.2197 9.96967C14.3603 9.82902 14.5511 9.75 14.75 9.75C14.9489 9.75 15.1397 9.82902 15.2803 9.96967C15.421 10.1103 15.5 10.3011 15.5 10.5V12C15.5 13.8593 14.8094 15.6523 13.5622 17.0312C12.3149 18.4101 10.6 19.2766 8.75 19.4625V22.5H13.25C13.4489 22.5 13.6397 22.579 13.7803 22.7197C13.921 22.8603 14 23.0511 14 23.25C14 23.4489 13.921 23.6397 13.7803 23.7803C13.6397 23.921 13.4489 24 13.25 24H2.75C2.55109 24 2.36032 23.921 2.21967 23.7803C2.07902 23.6397 2 23.4489 2 23.25C2 23.0511 2.07902 22.8603 2.21967 22.7197C2.36032 22.579 2.55109 22.5 2.75 22.5H7.25V19.4625C5.40003 19.2766 3.68506 18.4101 2.43782 17.0312C1.19058 15.6523 0.499977 13.8593 0.5 12V10.5C0.5 10.3011 0.579018 10.1103 0.71967 9.96967C0.860322 9.82902 1.05109 9.75 1.25 9.75Z" fill="#FAFAFA"/>
</svg>
