<svg width="20" height="20" viewBox="0 0 20 20" fill="none" xmlns="http://www.w3.org/2000/svg">
<path d="M11.0779 1.82514e-06C11.3719 1.82514e-06 11.6349 0.183002 11.7339 0.457002L12.4399 2.414C12.6929 2.477 12.9099 2.54 13.0939 2.606C13.2949 2.678 13.5539 2.787 13.8739 2.936L15.5179 2.066C15.6521 1.99491 15.8057 1.96925 15.9557 1.99287C16.1057 2.01649 16.244 2.08811 16.3499 2.197L17.7959 3.692C17.9879 3.891 18.0419 4.182 17.9339 4.436L17.1629 6.243C17.2909 6.478 17.3929 6.679 17.4709 6.847C17.5549 7.03 17.6589 7.282 17.7829 7.607L19.5799 8.377C19.8499 8.492 20.0169 8.762 19.9989 9.051L19.8669 11.126C19.8579 11.2608 19.8095 11.39 19.7277 11.4975C19.6459 11.6051 19.5344 11.6863 19.4069 11.731L17.7049 12.336C17.6559 12.571 17.6049 12.772 17.5509 12.942C17.4638 13.2045 17.3643 13.4628 17.2529 13.716L18.1079 15.606C18.1682 15.7388 18.1845 15.8874 18.1542 16.0301C18.124 16.1728 18.0489 16.3021 17.9399 16.399L16.3139 17.851C16.2068 17.9462 16.0732 18.0064 15.9309 18.0236C15.7886 18.0408 15.6445 18.014 15.5179 17.947L13.8419 17.059C13.5797 17.1978 13.3092 17.3204 13.0319 17.426L12.2999 17.7L11.6499 19.5C11.6017 19.6318 11.5148 19.746 11.4006 19.8276C11.2864 19.9091 11.1502 19.9542 11.0099 19.957L9.10988 20C8.96584 20.0038 8.82417 19.9628 8.70437 19.8828C8.58456 19.8027 8.49251 19.6875 8.44088 19.553L7.67488 17.526C7.41353 17.4367 7.15476 17.34 6.89888 17.236C6.68959 17.1454 6.48347 17.0477 6.28088 16.943L4.38088 17.755C4.25569 17.8084 4.11767 17.8243 3.98362 17.8007C3.84958 17.7771 3.72528 17.715 3.62588 17.622L2.21988 16.303C2.1152 16.2052 2.04391 16.077 2.0161 15.9365C1.98828 15.796 2.00535 15.6503 2.06488 15.52L2.88188 13.74C2.77322 13.5292 2.67249 13.3144 2.57988 13.096C2.47178 12.8287 2.37174 12.5583 2.27988 12.285L0.489879 11.74C0.34438 11.696 0.217474 11.6052 0.128869 11.4817C0.0402643 11.3582 -0.00507958 11.2089 -0.000120812 11.057L0.0698792 9.136C0.0748618 9.01066 0.114016 8.88907 0.183107 8.78438C0.252198 8.67968 0.348597 8.59587 0.461879 8.542L2.33988 7.64C2.42688 7.321 2.50288 7.073 2.56988 6.892C2.66422 6.65025 2.76899 6.41269 2.88388 6.18L2.06988 4.46C2.0081 4.32938 1.98935 4.18254 2.0163 4.04059C2.04325 3.89864 2.11453 3.76889 2.21988 3.67L3.62388 2.344C3.7223 2.25117 3.84545 2.18876 3.97851 2.16428C4.11156 2.1398 4.24886 2.15429 4.37388 2.206L6.27188 2.99C6.48188 2.85 6.67188 2.737 6.84388 2.646C7.04888 2.537 7.32288 2.423 7.66788 2.3L8.32788 0.459002C8.37667 0.32427 8.46586 0.207883 8.58327 0.125733C8.70068 0.0435827 8.84058 -0.000326251 8.98388 1.82514e-06H11.0779ZM10.0239 7.019C8.35688 7.019 7.00588 8.354 7.00588 10.002C7.00588 11.65 8.35688 12.986 10.0239 12.986C11.6899 12.986 13.0409 11.65 13.0409 10.002C13.0409 8.354 11.6909 7.019 10.0239 7.019Z" fill="white"/>
</svg>
