<svg width="24" height="24" viewBox="0 0 24 24" fill="none" xmlns="http://www.w3.org/2000/svg">
<path d="M19.3068 8H4.69324C4.50938 8 4.33305 7.89464 4.20305 7.70711C4.07304 7.51957 4 7.26522 4 7C4 6.73478 4.07304 6.48043 4.20305 6.29289C4.33305 6.10536 4.50938 6 4.69324 6H19.3068C19.4906 6 19.6669 6.10536 19.797 6.29289C19.927 6.48043 20 6.73478 20 7C20 7.26522 19.927 7.51957 19.797 7.70711C19.6669 7.89464 19.4906 8 19.3068 8Z" fill="white"/>
<path d="M14.2998 12H4.70019C4.51449 12 4.33639 11.8946 4.20508 11.7071C4.07377 11.5196 4 11.2652 4 11C4 10.7348 4.07377 10.4804 4.20508 10.2929C4.33639 10.1054 4.51449 10 4.70019 10H14.2998C14.4855 10 14.6636 10.1054 14.7949 10.2929C14.9262 10.4804 15 10.7348 15 11C15 11.2652 14.9262 11.5196 14.7949 11.7071C14.6636 11.8946 14.4855 12 14.2998 12Z" fill="white"/>
<path d="M9.27536 16H4.72464C4.53245 16 4.34814 15.8946 4.21224 15.7071C4.07635 15.5196 4 15.2652 4 15C4 14.7348 4.07635 14.4804 4.21224 14.2929C4.34814 14.1054 4.53245 14 4.72464 14H9.27536C9.46755 14 9.65186 14.1054 9.78776 14.2929C9.92365 14.4804 10 14.7348 10 15C10 15.2652 9.92365 15.5196 9.78776 15.7071C9.65186 15.8946 9.46755 16 9.27536 16Z" fill="white"/>
</svg>
