<svg width="20" height="20" viewBox="0 0 20 20" fill="none" xmlns="http://www.w3.org/2000/svg">
<path d="M2 20H3V6.31579H2C1.46957 6.31579 0.960859 6.53759 0.585786 6.93241C0.210714 7.32722 0 7.8627 0 8.42105V17.8947C0 18.4531 0.210714 18.9886 0.585786 19.3834C0.960859 19.7782 1.46957 20 2 20ZM18 6.31579H11L12.122 2.77053C12.2221 2.45412 12.2494 2.11721 12.2016 1.78753C12.1538 1.45786 12.0322 1.14486 11.847 0.87431C11.6617 0.603764 11.4181 0.383413 11.1361 0.231406C10.8541 0.0793993 10.5418 8.64345e-05 10.225 0H10L5 5.72421V20H16L19.912 10.9516L20 10.5263V8.42105C20 7.8627 19.7893 7.32722 19.4142 6.93241C19.0391 6.53759 18.5304 6.31579 18 6.31579Z" fill="white"/>
</svg>
